<?xml version="1.0" encoding="UTF-8"?>
<svg xmlns="http://www.w3.org/2000/svg" viewBox="0 0 645.49 735.1">
  <defs>
    <style>
      .cls-1 {
        letter-spacing: 0em;
      }

      .cls-2 {
        letter-spacing: -.03em;
      }

      .cls-3 {
        font-size: 200px;
      }

      .cls-4 {
        fill: #223e44;
        font-family: YWFTDessau-Outline, 'YWFT Dessau';
      }

      .cls-5 {
        fill: #e09f3e;
        font-family: YWFTDessau-Solid2, 'YWFT Dessau';
      }

      .cls-6 {
        fill: #eae2b7;
        font-family: YWFTDessau-Solid1, 'YWFT Dessau';
      }

      .cls-7 {
        fill: #087e8b;
      }

      .cls-8 {
        font-size: 175px;
      }

      .cls-9 {
        letter-spacing: -.02em;
      }

      .cls-10 {
        letter-spacing: -.02em;
      }
    </style>
  </defs>
  <g id="Layer_2" data-name="Layer 2">
    <path class="cls-7" d="m645.34,535.03V200.06c0-11.64-6.21-22.39-16.29-28.21L338.96,4.36c-10.08-5.82-22.5-5.82-32.58,0L16.29,171.85c-10.08,5.82-16.29,16.57-16.29,28.21v334.97c0,11.64,6.21,22.39,16.29,28.21l290.09,167.49c10.08,5.82,22.5,5.82,32.58,0l290.09-167.49c10.08-5.82,16.29-16.57,16.29-28.21Z"/>
  </g>
  <g id="Layer_4" data-name="Layer 4">
    <text class="cls-6" transform="translate(101.9 332.38)"><tspan class="cls-3"><tspan class="cls-9" x="0" y="0">c</tspan><tspan class="cls-2" x="103.4" y="0">os</tspan><tspan x="335.2" y="0">t</tspan></tspan><tspan class="cls-8"><tspan class="cls-1" x="-64.76" y="172">O</tspan><tspan class="cls-2" x="64.21" y="172">F</tspan><tspan class="cls-10" x="158.36" y="172">F</tspan><tspan class="cls-2" x="254.26" y="172">i</tspan><tspan class="cls-1" x="311.31" y="172">C</tspan><tspan x="416.13" y="172">e</tspan></tspan></text>
  </g>
  <g id="Layer_5" data-name="Layer 5">
    <text class="cls-5" transform="translate(101.9 332.97)"><tspan class="cls-3"><tspan class="cls-9" x="0" y="0">c</tspan><tspan class="cls-2" x="103.4" y="0">os</tspan><tspan x="335.2" y="0">t</tspan></tspan><tspan class="cls-8"><tspan class="cls-1" x="-64.76" y="172">O</tspan><tspan class="cls-2" x="64.21" y="172">F</tspan><tspan class="cls-10" x="158.36" y="172">F</tspan><tspan class="cls-2" x="254.26" y="172">i</tspan><tspan class="cls-1" x="311.31" y="172">C</tspan><tspan x="416.13" y="172">e</tspan></tspan></text>
  </g>
  <g id="Layer_3" data-name="Layer 3">
    <text class="cls-4" transform="translate(101.9 333.31)"><tspan class="cls-3"><tspan class="cls-9" x="0" y="0">c</tspan><tspan class="cls-2" x="103.4" y="0">os</tspan><tspan x="335.2" y="0">t</tspan></tspan><tspan class="cls-8"><tspan class="cls-1" x="-64.76" y="172">O</tspan><tspan class="cls-2" x="64.21" y="172">F</tspan><tspan class="cls-10" x="158.36" y="172">F</tspan><tspan class="cls-2" x="254.26" y="172">i</tspan><tspan class="cls-1" x="311.31" y="172">C</tspan><tspan x="416.13" y="172">e</tspan></tspan></text>
  </g>
</svg>